Coordinates
version=1
nRows=9
nColumns=63
inDegrees=yes

Units are S.I. units (second, meters, Newtons, ...)
If the header above contains a line with 'inDegrees', this indicates whether rotational values are in degrees (yes) or radians (no).

endheader
time	pelvis_tilt	pelvis_list	pelvis_rotation	pelvis_tx	pelvis_ty	pelvis_tz	hip_flexion_r	hip_adduction_r	hip_rotation_r	knee_angle_r	knee_angle_r_beta	ankle_angle_r	subtalar_angle_r	mtp_angle_r	hip_flexion_l	hip_adduction_l	hip_rotation_l	knee_angle_l	knee_angle_l_beta	ankle_angle_l	subtalar_angle_l	mtp_angle_l	L5_S1_Flex_Ext	L5_S1_Lat_Bending	L5_S1_axial_rotation	L4_L5_Flex_Ext	L4_L5_Lat_Bending	L4_L5_axial_rotation	L3_L4_Flex_Ext	L3_L4_Lat_Bending	L3_L4_axial_rotation	L2_L3_Flex_Ext	L2_L3_Lat_Bending	L2_L3_axial_rotation	L1_L2_Flex_Ext	L1_L2_Lat_Bending	L1_L2_axial_rotation	L1_T12_Flex_Ext	L1_T12_Lat_Bending	L1_T12_axial_rotation	Abs_r3	Abs_r2	Abs_r1	Abs_t1	Abs_t2	neck_flexion	neck_bending	neck_rotation	arm_flex_r	arm_add_r	arm_rot_r	elbow_flex_r	pro_sup_r	wrist_flex_r	wrist_dev_r	arm_flex_l	arm_add_l	arm_rot_l	elbow_flex_l	pro_sup_l	wrist_flex_l	wrist_dev_l
3.525424	-0.687606	-12.205041	82.890616	0.212081	0.873373	0.649965	7.838502	-0.433976	-17.328972	8.032106	0.140187	26.166656	17.204229	0.000000	4.117749	-1.561731	0.718654	3.627761	0.063316	22.270061	-2.565004	0.000000	0.137479	-0.197622	1.491803	0.255312	-0.262837	1.585041	0.225864	-0.480498	1.585041	0.157125	-0.480498	1.305328	0.127663	-0.402991	1.212090	0.078555	-0.306116	1.118852	0.981997	-2.235539	8.296960	0.000000	0.000000	10.202375	2.061511	-5.619867	13.296331	-4.648311	6.964352	102.788756	88.986457	-2.844360	30.027862	6.852850	-11.625352	64.592980	35.760480	89.104495	-6.200068	18.078742
3.542373	-0.470195	-11.965527	83.231323	0.210630	0.873866	0.649348	7.553864	-0.378336	-17.645260	8.147755	0.142205	26.129737	17.267771	0.000000	3.776514	-1.660872	1.708977	3.456853	0.060333	22.069501	-3.392160	0.000000	0.156113	-0.177112	1.601864	0.289918	-0.235559	1.701980	0.256478	-0.430630	1.701980	0.178422	-0.430630	1.401631	0.144967	-0.361166	1.301514	0.089203	-0.274346	1.201398	1.115100	-2.003524	8.909085	0.000000	0.000000	10.119755	2.301866	-6.365662	11.508002	-6.783975	9.344640	100.232437	89.058681	-1.331399	31.194555	7.392361	-11.224356	65.753171	35.018909	88.981815	-6.105007	16.744836
3.559322	-0.270142	-11.695089	83.564601	0.209215	0.874426	0.648686	7.241704	-0.342295	-17.946306	8.279453	0.144504	26.031815	17.335374	0.000000	3.409024	-1.746083	2.697075	3.285833	0.057349	21.868768	-4.211142	0.000000	0.168069	-0.158934	1.707836	0.312120	-0.211382	1.814575	0.276120	-0.386432	1.814575	0.192086	-0.386432	1.494356	0.156069	-0.324098	1.387616	0.096034	-0.246188	1.280877	1.200497	-1.797891	9.498469	0.000000	0.000000	9.976084	2.397388	-7.296179	9.803492	-8.825640	11.777102	97.327431	89.132095	0.157309	32.338345	7.912529	-10.837389	66.857738	34.304565	88.874895	-5.870275	15.482274
3.576271	-0.084264	-11.405584	83.890800	0.207827	0.875046	0.647973	6.904549	-0.316009	-18.215717	8.406624	0.146723	25.868197	17.379700	0.000000	3.030366	-1.819343	3.724284	3.122757	0.054502	21.650450	-5.094748	0.000000	0.174983	-0.141894	1.821045	0.324961	-0.188719	1.934860	0.287480	-0.345001	1.934860	0.199988	-0.345001	1.593414	0.162489	-0.289350	1.479599	0.099985	-0.219794	1.365784	1.249888	-1.605133	10.128105	0.000000	0.000000	9.821191	2.388297	-8.390406	8.110791	-10.724937	14.107102	94.198263	89.198304	1.486222	33.303872	8.571929	-10.424033	68.523390	33.530496	88.779096	-5.596658	14.205076
3.593220	0.089893	-11.100410	84.203272	0.206481	0.875694	0.647201	6.537067	-0.292005	-18.444108	8.511126	0.148547	25.654834	17.403712	0.000000	2.641827	-1.886105	4.740259	2.970717	0.051849	21.417341	-5.986332	0.000000	0.176838	-0.124524	1.937084	0.328406	-0.165617	2.058152	0.290528	-0.302768	2.058152	0.202108	-0.302768	1.694948	0.164212	-0.253930	1.573881	0.101045	-0.192888	1.452813	1.263138	-1.408642	10.773479	0.000000	0.000000	9.718111	2.239423	-9.569984	6.374459	-12.391015	16.213693	90.933519	89.259952	2.652882	33.933687	9.319575	-9.969052	70.593148	32.725640	88.699116	-5.242938	12.965425
3.610169	0.262774	-10.793596	84.486147	0.205190	0.876334	0.646370	6.151958	-0.255506	-18.612093	8.586931	0.149870	25.395474	17.407681	0.000000	2.251725	-1.958149	5.693339	2.828486	0.049366	21.168701	-6.864111	0.000000	0.175606	-0.104319	2.053858	0.326119	-0.138744	2.182224	0.288504	-0.253640	2.182224	0.200701	-0.253640	1.797125	0.163068	-0.212727	1.668759	0.100342	-0.161590	1.540393	1.254340	-1.180073	11.422940	0.000000	0.000000	9.714912	1.956614	-10.728998	4.551947	-13.773328	18.005237	87.637334	89.317040	3.714965	34.193999	10.143256	-9.460175	73.095099	31.873332	88.607648	-4.944200	11.703871
3.627119	0.407065	-10.486094	84.736935	0.203968	0.876928	0.645469	5.752330	-0.233114	-18.718979	8.631934	0.150656	25.134297	17.386999	0.000000	1.864748	-2.007671	6.549957	2.701537	0.047151	20.910988	-7.702665	0.000000	0.171837	-0.084631	2.158368	0.319118	-0.112559	2.293266	0.282311	-0.205772	2.293266	0.196392	-0.205772	1.888572	0.159568	-0.172579	1.753674	0.098188	-0.131093	1.618776	1.227414	-0.957362	12.004193	0.000000	0.000000	9.835083	1.566358	-11.816702	2.667303	-14.851194	19.512998	84.384757	89.366214	4.633871	34.177725	10.924258	-8.966635	75.571041	31.088183	88.521944	-4.714395	10.546324
3.644068	0.545361	-10.185411	84.966955	0.202799	0.877462	0.644533	5.341047	-0.201458	-18.788421	8.638422	0.150769	24.868558	17.351218	0.000000	1.484821	-2.056315	7.327546	2.586041	0.045135	20.643640	-8.507911	0.000000	0.166642	-0.061389	2.236709	0.309471	-0.081647	2.376503	0.273777	-0.149260	2.376503	0.190455	-0.149260	1.957120	0.154744	-0.125184	1.817326	0.095219	-0.095091	1.677532	1.190309	-0.694441	12.439903	0.000000	0.000000	10.078266	1.137484	-12.586018	0.804541	-15.595208	20.716538	81.198328	89.411059	5.740793	34.169293	11.641792	-8.500184	77.897416	30.367817	88.443485	-4.483039	9.540705
3.661017	0.671194	-9.896115	85.160599	0.201714	0.877920	0.643580	4.929757	-0.165020	-18.815607	8.614953	0.150359	24.620318	17.304913	0.000000	1.113348	-2.099854	7.984486	2.476806	0.043228	20.388718	-9.239368	0.000000	0.161250	-0.035912	2.283950	0.299458	-0.047763	2.426697	0.264918	-0.087317	2.426697	0.184293	-0.087317	1.998456	0.149737	-0.073232	1.855710	0.092138	-0.055628	1.712963	1.151794	-0.406247	12.702646	0.000000	0.000000	10.409911	0.733007	-12.989989	-0.944645	-16.043332	21.715604	78.090031	89.451920	6.944663	34.294111	12.236947	-8.073334	79.926147	29.733209	88.369334	-4.299842	8.702190
